<?xml version="1.0" encoding="utf-8"?>
<!-- Generator: Adobe Illustrator 19.0.0, SVG Export Plug-In . SVG Version: 6.00 Build 0)  -->
<svg version="1.1" id="图层_1" xmlns="http://www.w3.org/2000/svg" xmlns:xlink="http://www.w3.org/1999/xlink" x="0px" y="0px"
	 viewBox="-168 250.3 141.7 141.7" style="enable-background:new -168 250.3 141.7 141.7;" xml:space="preserve">
<style type="text/css">
	.st0{fill:url(#SVGID_1_);}
	.st1{fill:url(#SVGID_2_);}
	.st2{fill:url(#SVGID_3_);}
</style>
<g>
	
		<linearGradient id="SVGID_1_" gradientUnits="userSpaceOnUse" x1="-86.6933" y1="341.3964" x2="-49.3572" y2="341.3964" gradientTransform="matrix(1 0 0 -1 0 644.54)">
		<stop  offset="3.215440e-02" style="stop-color:#F0776F"/>
		<stop  offset="1" style="stop-color:#F0606F"/>
	</linearGradient>
	<path class="st0" d="M-57.7,329.7c-0.2,0-0.4,0-0.7-0.1c-2.9-0.3-4.9-2.9-4.6-5.8l3.1-25.8c0.2-1.7-0.8-3.3-2.3-3.8l-21.1-7.5
		c-2.7-1-4.1-3.9-3.2-6.6c1-2.7,3.9-4.1,6.6-3.2l21.1,7.5c6.2,2.2,10,8.3,9.2,14.9l-3.1,25.8C-52.9,327.7-55.1,329.7-57.7,329.7z"/>
	
		<linearGradient id="SVGID_2_" gradientUnits="userSpaceOnUse" x1="-144.9128" y1="323.0541" x2="-54.6766" y2="323.0541" gradientTransform="matrix(1 0 0 -1 0 644.54)">
		<stop  offset="0" style="stop-color:#6EB4E0"/>
		<stop  offset="1" style="stop-color:#1588E0"/>
	</linearGradient>
	<path class="st1" d="M-98.1,371.1c-2.3,0-4.7-0.6-6.8-1.8l-27.2-15.1c-3.9-2.2-6.6-6.1-7.1-10.6l-5.5-44.9
		c-0.8-6.6,3.1-12.8,9.4-15l33.7-11.5c2.7-0.9,5.7,0.5,6.6,3.3c0.9,2.7-0.5,5.7-3.3,6.6l-33.7,11.5c-1.6,0.5-2.6,2.1-2.4,3.9
		l5.5,44.9c0.1,1.1,0.8,2.1,1.8,2.7l27.2,15.1c1.1,0.6,2.4,0.6,3.5,0l29.5-16.1c1-0.5,1.7-1.6,1.9-2.7c0.3-2.9,2.9-4.9,5.8-4.6
		c2.9,0.3,4.9,2.9,4.6,5.8c-0.5,4.5-3.3,8.4-7.2,10.6l-29.5,16.1C-93.4,370.5-95.8,371.1-98.1,371.1z"/>
	
		<linearGradient id="SVGID_3_" gradientUnits="userSpaceOnUse" x1="-120.8889" y1="327.4322" x2="-74.197" y2="327.4322" gradientTransform="matrix(1 0 0 -1 0 644.54)">
		<stop  offset="3.215440e-02" style="stop-color:#F0776F"/>
		<stop  offset="1" style="stop-color:#F0606F"/>
	</linearGradient>
	<path class="st2" d="M-74.8,330.6l-16.9-30.5l-0.1-0.1c-1.2-2.1-3.5-3.4-5.8-3.4c-2.4,0-4.7,1.3-5.8,3.4l-16.9,30.6
		c-1.3,2.3-0.5,5.2,1.9,6.4s5.2,0.5,6.4-1.9l3.3-5.9h22.3l3.3,5.9c0.9,1.6,2.5,2.5,4.2,2.5c0.8,0,1.6-0.2,2.3-0.6
		C-74.4,335.7-73.5,332.8-74.8,330.6z M-103.5,319.7l5.9-10.7l5.9,10.7H-103.5z"/>
</g>
</svg>
