<?xml version="1.0" standalone="no"?>
<!DOCTYPE svg PUBLIC "-//W3C//DTD SVG 20010904//EN"
 "http://www.w3.org/TR/2001/REC-SVG-20010904/DTD/svg10.dtd">
<svg version="1.0" xmlns="http://www.w3.org/2000/svg"
 width="497.000000pt" height="497.000000pt" viewBox="0 0 497.000000 497.000000"
 preserveAspectRatio="xMidYMid meet">
<metadata>
Created by potrace 1.11, written by Peter Selinger 2001-2013
</metadata>
<g transform="translate(0.000000,497.000000) scale(0.100000,-0.100000)"
fill="#000000" stroke="none">
<path d="M2443 4959 c-34 -4 -82 -23 -140 -55 -48 -27 -92 -51 -98 -53 -5 -2
-17 -9 -25 -16 -8 -7 -40 -26 -70 -42 -118 -65 -448 -257 -505 -295 -55 -35
-105 -92 -105 -118 0 -5 -4 -10 -9 -10 -11 0 -26 -91 -23 -135 6 -98 64 -189
151 -238 44 -25 67 -31 128 -33 48 -2 86 2 110 12 19 9 167 90 327 181 160 92
296 166 301 166 6 0 143 -77 305 -170 162 -94 312 -176 334 -183 62 -20 175
-9 229 23 174 102 203 339 57 470 -26 23 -60 49 -76 57 -16 8 -94 53 -174 99
-80 46 -165 95 -190 109 -25 14 -117 66 -205 117 -197 113 -232 126 -322 114z"/>
<path d="M970 4126 c-31 -11 -322 -175 -507 -286 -85 -51 -137 -114 -156 -191
-11 -44 -13 -266 -12 -1189 l1 -1135 25 -55 c14 -30 42 -71 63 -90 32 -31
1894 -1116 1986 -1158 41 -19 144 -25 193 -11 19 5 75 32 123 60 49 29 177
102 284 164 184 106 409 237 670 388 63 37 122 72 130 77 8 6 26 16 40 23 21
10 188 106 240 137 64 39 127 76 135 80 6 3 89 50 185 105 188 108 240 150
273 223 l22 47 1 1155 c2 1137 2 1156 -18 1209 -12 32 -38 71 -62 95 -46 46
-513 321 -589 347 -63 21 -146 16 -212 -15 -58 -27 -96 -63 -133 -126 -24 -40
-27 -56 -27 -135 0 -152 41 -204 256 -325 163 -92 186 -111 195 -158 4 -20 7
-424 7 -897 0 -787 -1 -863 -17 -893 -15 -30 -52 -59 -118 -93 -29 -15 -364
-207 -503 -289 -44 -26 -188 -109 -320 -185 -132 -76 -314 -182 -405 -234 -91
-53 -182 -105 -202 -115 l-36 -19 -543 313 c-299 173 -638 368 -754 435 -115
66 -224 129 -242 140 -18 10 -38 33 -45 49 -10 24 -13 220 -14 901 -1 826 0
872 17 910 17 36 36 50 176 130 187 106 213 128 250 203 23 48 28 69 27 132 0
88 -22 140 -87 208 -70 72 -202 103 -297 68z"/>
<path d="M2440 3413 c-69 -23 -97 -46 -147 -119 -90 -131 -246 -356 -296 -427
-31 -45 -62 -89 -67 -97 -5 -8 -36 -52 -67 -97 -32 -45 -83 -119 -113 -163
-30 -44 -87 -127 -126 -183 -79 -113 -94 -149 -94 -216 1 -84 50 -160 131
-202 43 -22 49 -22 470 -22 l425 0 53 29 c64 34 100 78 116 142 22 82 -3 169
-62 223 -60 56 -86 63 -253 66 -85 1 -167 2 -182 3 -26 0 -20 10 119 213 80
116 147 213 148 215 2 3 204 -303 443 -673 91 -141 116 -170 166 -194 178 -83
368 68 325 259 -10 46 -22 65 -544 860 -45 69 -107 163 -137 210 -68 104 -94
132 -146 159 -39 20 -123 27 -162 14z"/>
</g>
</svg>
