<?xml version="1.0" encoding="utf-8"?>
<!-- Generator: Adobe Illustrator 19.0.0, SVG Export Plug-In . SVG Version: 6.00 Build 0)  -->
<svg version="1.1" id="图层_1" xmlns="http://www.w3.org/2000/svg" xmlns:xlink="http://www.w3.org/1999/xlink" x="0px" y="0px"
	 viewBox="-399 401 200 200" style="enable-background:new -399 401 200 200;" xml:space="preserve">
<style type="text/css">
	.st0{fill:url(#A_1_);}
	.st1{fill:url(#Shape_3_);}
	.st2{fill:url(#Shape_4_);}
	.st3{fill:url(#Shape_5_);}
</style>
<title>Group 28 Copy 5</title>
<desc>Created with Sketch.</desc>
<g id="Group-4">
	
		<linearGradient id="A_1_" gradientUnits="userSpaceOnUse" x1="-788.7949" y1="994.4375" x2="-789.3979" y2="992.0273" gradientTransform="matrix(53.4167 0 0 -51.6667 41861.8359 51802.9961)">
		<stop  offset="0" style="stop-color:#FA8E7D"/>
		<stop  offset="0.5126" style="stop-color:#F74A5C"/>
		<stop  offset="1" style="stop-color:#F51D2C"/>
	</linearGradient>
	<path id="A" class="st0" d="M-276.6,522.6l-4.4-10h-37.3l-4.4,10.3c-1.7,4-3.2,6.7-4.4,8.1c-1.2,1.3-3.2,2.1-6,2.1
		c-2.4,0-4.4-0.8-6.3-2.3c-1.9-1.5-2.7-3.2-2.7-5.1c0-1.1,0.3-2.3,0.7-3.3s1.1-2.8,2.1-4.8l23.5-51.9c0.7-1.5,1.5-3.3,2.4-5.3
		c0.9-2.1,2-3.9,3.1-5.2c1.1-1.3,2.5-2.5,4.3-3.3c1.7-0.8,3.9-1.3,6.4-1.3s4.8,0.4,6.5,1.3c1.7,0.8,3.2,2,4.3,3.3
		c1.1,1.3,2,2.8,2.7,4.4c0.7,1.6,1.6,3.6,2.8,6.1l24,51.6c1.9,3.9,2.8,6.8,2.8,8.5c0,1.9-0.9,3.6-2.7,5.1c-1.7,1.6-3.9,2.3-6.4,2.3
		c-1.5,0-2.7-0.3-3.7-0.7c-1.1-0.4-1.9-1.1-2.7-1.9c-0.7-0.8-1.5-2-2.3-3.6C-275.4,525.3-276.1,523.8-276.6,522.6z M-313.5,500.3
		h27.5l-13.9-32.9L-313.5,500.3z"/>
	
		<linearGradient id="Shape_3_" gradientUnits="userSpaceOnUse" x1="-787.5504" y1="995.4839" x2="-787.6815" y2="992.8763" gradientTransform="matrix(46.4786 0 0 -58.25 36365.25 58375.25)">
		<stop  offset="0" style="stop-color:#FA816E"/>
		<stop  offset="0.4147" style="stop-color:#F74A5C"/>
		<stop  offset="1" style="stop-color:#F51D2C"/>
	</linearGradient>
	<path id="Shape" class="st1" d="M-217.9,428.7l-45.1-16c-1.3-0.7-2.8-0.9-4.4-0.9c-5.9,0-10.7,4.8-10.7,10.7
		c0,4.7,3.1,8.7,7.3,10.1l0,0l45.7,16.3l-4.5,42.3c-0.3,1.1-0.5,2.1-0.5,3.2c0,5.9,4.8,10.7,10.7,10.7c5.6,0,10.1-4.3,10.7-9.6h0.3
		l4.7-44.4C-202.9,441.3-208.6,432.1-217.9,428.7z"/>
	
		<linearGradient id="Shape_4_" gradientUnits="userSpaceOnUse" x1="-794.1949" y1="997.8074" x2="-793.3536" y2="998.1414" gradientTransform="matrix(114.0794 0 0 -125 90237.6406 125252)">
		<stop  offset="0" style="stop-color:#4285EB"/>
		<stop  offset="1" style="stop-color:#2EC7FF"/>
	</linearGradient>
	<path id="Shape_1_" class="st2" d="M-213.1,533.3c0.3-0.9,0.4-2,0.4-2.9c0-5.9-4.8-10.7-10.7-10.7c-5.9,0-10.7,4.8-10.7,10.7
		c0,0.5,0,1.2,0.1,1.7l-1.5,14l-64,33.5l-64-33.5l-10.4-97.3l74.4-26.4h0.1v-0.1c5.2-0.7,9.2-5.2,9.2-10.5c0-5.9-4.8-10.7-10.7-10.7
		c-1.7,0-3.3,0.4-4.7,1.1l-0.1-0.3l-75.3,26.9c-9.3,3.3-15.1,12.5-14,22.4l10.4,97.3c0.8,7.1,4.9,13.3,11.3,16.7l64,33.5
		c6.1,3.2,13.6,3.2,19.7,0l64-33.5c6.3-3.3,10.5-9.6,11.3-16.7l1.6-14.9L-213.1,533.3z"/>
	
		<linearGradient id="Shape_5_" gradientUnits="userSpaceOnUse" x1="-794.257" y1="998.2071" x2="-793.2923" y2="996.8145" gradientTransform="matrix(114.0794 0 0 -111.4652 90237.6406 111703.6328)">
		<stop  offset="0" style="stop-color:#29CDFF"/>
		<stop  offset="0.3786" style="stop-color:#148EFF"/>
		<stop  offset="1" style="stop-color:#0A60FF"/>
	</linearGradient>
	<path id="Shape_2_" class="st3" d="M-213.1,533.3c0.3-0.9,0.4-2,0.4-2.9c0-5.9-4.8-10.7-10.7-10.7c-5.9,0-10.7,4.8-10.7,10.7
		c0,0.5,0,1.2,0.1,1.7l-1.5,14l-64,33.5l-64-33.5l-10.4-97.3c-1.1-10.9,2.3-19.6,10-26.1l-17,6.1c-9.3,3.3-15.1,12.5-14,22.4
		l10.4,97.3c0.8,7.1,4.9,13.3,11.3,16.7l64,33.5c6.1,3.2,13.6,3.2,19.7,0l64-33.5c6.3-3.3,10.5-9.6,11.3-16.7l1.6-14.9L-213.1,533.3
		z"/>
</g>
</svg>
