<?xml version="1.0" encoding="utf-8"?>
<!-- Generator: Adobe Illustrator 19.0.0, SVG Export Plug-In . SVG Version: 6.00 Build 0)  -->
<svg version="1.1" id="图层_1" xmlns="http://www.w3.org/2000/svg" xmlns:xlink="http://www.w3.org/1999/xlink" x="0px" y="0px"
	 viewBox="-337 470 324 62" style="enable-background:new -337 470 324 62;" xml:space="preserve">
<style type="text/css">
	.st0{fill:#000000;}
</style>
<title>Ant Design Copy</title>
<desc>Created with Sketch.</desc>
<g>
	<path class="st0" d="M-298.6,524.1h-7.6l-19.4-30.9v30.9h-7.6v-43.5h7.6l19.5,31v-31h7.5V524.1z"/>
	<path class="st0" d="M-253.2,518.5c-1.6,2.1-3.8,3.6-6.5,4.7c-2.8,1.1-6,1.6-9.5,1.6c-3.6,0-6.9-0.8-9.7-2.5s-5-4-6.5-7.1
		c-1.5-3.1-2.3-6.7-2.4-10.8V501c0-6.6,1.6-11.7,4.7-15.4c3.1-3.7,7.5-5.5,13.2-5.5c4.8,0,8.7,1.2,11.5,3.6
		c2.9,2.4,4.6,5.9,5.1,10.4h-7.4c-0.8-5.2-3.9-7.9-9.1-7.9c-3.4,0-6,1.2-7.7,3.7c-1.8,2.4-2.7,6-2.7,10.7v3.3c0,4.7,1,8.4,3,11
		c2,2.6,4.7,3.9,8.3,3.9c3.9,0,6.6-0.9,8.3-2.6v-8.5h-9v-5.7h16.5V518.5z"/>
	<path class="st0" d="M-228.4,508.6h-15.7v-5.9h15.7V508.6z"/>
	<path class="st0" d="M-211.6,518.1h23.3v6h-32.4v-4.9l22.5-32.5h-22.4v-6.1h31.6v4.8L-211.6,518.1z"/>
	<path class="st0" d="M-144.8,503.5c0,4.3-0.7,8-2.2,11.2c-1.5,3.2-3.6,5.7-6.3,7.4c-2.7,1.7-5.9,2.6-9.5,2.6
		c-3.5,0-6.7-0.9-9.4-2.6c-2.8-1.7-4.9-4.2-6.4-7.4c-1.5-3.2-2.3-6.9-2.3-11v-2.5c0-4.2,0.8-8,2.3-11.2c1.5-3.2,3.6-5.7,6.4-7.5
		c2.7-1.7,5.9-2.6,9.4-2.6c3.5,0,6.7,0.9,9.4,2.6c2.7,1.7,4.9,4.2,6.4,7.4c1.5,3.2,2.3,6.9,2.3,11.2V503.5z M-152.3,501.2
		c0-4.8-0.9-8.5-2.7-11.1s-4.4-3.9-7.8-3.9c-3.3,0-5.8,1.3-7.7,3.8c-1.8,2.6-2.8,6.2-2.8,10.9v2.5c0,4.8,0.9,8.5,2.8,11.1
		c1.9,2.6,4.5,3.9,7.8,3.9c3.3,0,5.9-1.3,7.7-3.8c1.8-2.6,2.7-6.3,2.7-11.2V501.2z"/>
	<path class="st0" d="M-118.2,507.4h-8.4v16.7h-7.6v-43.5h15.3c5,0,8.9,1.1,11.6,3.4c2.7,2.3,4.1,5.5,4.1,9.8c0,2.9-0.7,5.4-2.1,7.3
		s-3.4,3.5-5.9,4.5l9.8,18.1v0.4h-8.1L-118.2,507.4z M-126.6,501.3h7.8c2.6,0,4.5-0.6,6-1.9c1.4-1.3,2.2-3,2.2-5.3
		c0-2.3-0.7-4.1-2-5.4c-1.3-1.3-3.3-1.9-5.9-2h-8V501.3z"/>
	<path class="st0" d="M-76.9,507.4h-8.4v16.7h-7.6v-43.5h15.3c5,0,8.9,1.1,11.6,3.4c2.7,2.3,4.1,5.5,4.1,9.8c0,2.9-0.7,5.4-2.1,7.3
		c-1.4,2-3.4,3.5-5.9,4.5l9.8,18.1v0.4h-8.1L-76.9,507.4z M-85.3,501.3h7.8c2.6,0,4.5-0.6,6-1.9c1.4-1.3,2.2-3,2.2-5.3
		c0-2.3-0.7-4.1-2-5.4c-1.3-1.3-3.3-1.9-5.9-2h-8V501.3z"/>
	<path class="st0" d="M-16.9,503.5c0,4.3-0.7,8-2.2,11.2c-1.5,3.2-3.6,5.7-6.3,7.4s-5.9,2.6-9.5,2.6c-3.5,0-6.7-0.9-9.4-2.6
		s-4.9-4.2-6.4-7.4c-1.5-3.2-2.3-6.9-2.3-11v-2.5c0-4.2,0.8-8,2.3-11.2c1.5-3.2,3.6-5.7,6.4-7.5c2.7-1.7,5.9-2.6,9.4-2.6
		s6.7,0.9,9.4,2.6s4.9,4.2,6.4,7.4c1.5,3.2,2.3,6.9,2.3,11.2V503.5z M-24.4,501.2c0-4.8-0.9-8.5-2.7-11.1c-1.8-2.6-4.4-3.9-7.8-3.9
		c-3.3,0-5.8,1.3-7.7,3.8c-1.8,2.6-2.8,6.2-2.8,10.9v2.5c0,4.8,0.9,8.5,2.8,11.1c1.9,2.6,4.5,3.9,7.8,3.9c3.3,0,5.9-1.3,7.7-3.8
		c1.8-2.6,2.7-6.3,2.7-11.2V501.2z"/>
</g>
</svg>
